<mxfile host="app.diagrams.net" agent="Mozilla/5.0 (Windows NT 10.0; Win64; x64) AppleWebKit/537.36 (KHTML, like Gecko) Chrome/135.0.0.0 Safari/537.36 Edg/135.0.0.0" version="26.2.14">
  <diagram id="C5RBs43oDa-KdzZeNtuy" name="Page-1">
    <mxGraphModel dx="2954" dy="1554" grid="0" gridSize="10" guides="1" tooltips="1" connect="1" arrows="1" fold="1" page="1" pageScale="1" pageWidth="1200" pageHeight="1600" math="0" shadow="0">
      <root>
        <mxCell id="WIyWlLk6GJQsqaUBKTNV-0" />
        <mxCell id="WIyWlLk6GJQsqaUBKTNV-1" parent="WIyWlLk6GJQsqaUBKTNV-0" />
        <mxCell id="zkfFHV4jXpPFQw0GAbJ--0" value="Person" style="swimlane;fontStyle=1;align=center;verticalAlign=top;childLayout=stackLayout;horizontal=1;startSize=26;horizontalStack=0;resizeParent=1;resizeLast=0;collapsible=1;marginBottom=0;rounded=0;shadow=0;strokeWidth=1;" parent="WIyWlLk6GJQsqaUBKTNV-1" vertex="1">
          <mxGeometry x="280" y="253" width="160" height="140" as="geometry">
            <mxRectangle x="230" y="140" width="160" height="26" as="alternateBounds" />
          </mxGeometry>
        </mxCell>
        <mxCell id="zkfFHV4jXpPFQw0GAbJ--3" value="- id: Str&#xa;- name: Str&#xa;- lastname: Str&#xa;- age: Int&#xa;- gender: Str&#xa;- typedoc: Typedoc&#xa;- location: Location" style="text;align=left;verticalAlign=top;spacingLeft=4;spacingRight=4;overflow=hidden;rotatable=0;points=[[0,0.5],[1,0.5]];portConstraint=eastwest;rounded=0;shadow=0;html=0;" parent="zkfFHV4jXpPFQw0GAbJ--0" vertex="1">
          <mxGeometry y="26" width="160" height="114" as="geometry" />
        </mxCell>
        <mxCell id="YyfNLiO5-L-A0iqE2TPl-0" value="Parameter" style="swimlane;fontStyle=1;align=center;verticalAlign=top;childLayout=stackLayout;horizontal=1;startSize=26;horizontalStack=0;resizeParent=1;resizeLast=0;collapsible=1;marginBottom=0;rounded=0;shadow=0;strokeWidth=1;" parent="WIyWlLk6GJQsqaUBKTNV-1" vertex="1">
          <mxGeometry x="760" y="283" width="160" height="70" as="geometry">
            <mxRectangle x="230" y="140" width="160" height="26" as="alternateBounds" />
          </mxGeometry>
        </mxCell>
        <mxCell id="YyfNLiO5-L-A0iqE2TPl-1" value="- code: Str&#xa;- description: Str" style="text;align=left;verticalAlign=top;spacingLeft=4;spacingRight=4;overflow=hidden;rotatable=0;points=[[0,0.5],[1,0.5]];portConstraint=eastwest;rounded=0;shadow=0;html=0;" parent="YyfNLiO5-L-A0iqE2TPl-0" vertex="1">
          <mxGeometry y="26" width="160" height="44" as="geometry" />
        </mxCell>
        <mxCell id="YyfNLiO5-L-A0iqE2TPl-2" value="TypeDoc" style="swimlane;fontStyle=1;align=center;verticalAlign=top;childLayout=stackLayout;horizontal=1;startSize=26;horizontalStack=0;resizeParent=1;resizeLast=0;collapsible=1;marginBottom=0;rounded=0;shadow=0;strokeWidth=1;" parent="WIyWlLk6GJQsqaUBKTNV-1" vertex="1">
          <mxGeometry x="520" y="253" width="160" height="60" as="geometry">
            <mxRectangle x="280" y="40" width="160" height="26" as="alternateBounds" />
          </mxGeometry>
        </mxCell>
        <mxCell id="YyfNLiO5-L-A0iqE2TPl-4" value="Location" style="swimlane;fontStyle=1;align=center;verticalAlign=top;childLayout=stackLayout;horizontal=1;startSize=26;horizontalStack=0;resizeParent=1;resizeLast=0;collapsible=1;marginBottom=0;rounded=0;shadow=0;strokeWidth=1;" parent="WIyWlLk6GJQsqaUBKTNV-1" vertex="1">
          <mxGeometry x="520" y="333" width="160" height="60" as="geometry">
            <mxRectangle x="230" y="140" width="160" height="26" as="alternateBounds" />
          </mxGeometry>
        </mxCell>
        <mxCell id="YyfNLiO5-L-A0iqE2TPl-6" value="" style="endArrow=block;endFill=1;html=1;edgeStyle=orthogonalEdgeStyle;align=left;verticalAlign=top;rounded=0;entryX=-0.022;entryY=0.677;entryDx=0;entryDy=0;exitX=1;exitY=0.5;exitDx=0;exitDy=0;entryPerimeter=0;" parent="WIyWlLk6GJQsqaUBKTNV-1" source="YyfNLiO5-L-A0iqE2TPl-4" target="YyfNLiO5-L-A0iqE2TPl-1" edge="1">
          <mxGeometry x="-1" relative="1" as="geometry">
            <mxPoint x="494" y="493" as="sourcePoint" />
            <mxPoint x="654" y="493" as="targetPoint" />
          </mxGeometry>
        </mxCell>
        <mxCell id="YyfNLiO5-L-A0iqE2TPl-8" value="" style="endArrow=block;endFill=1;html=1;edgeStyle=orthogonalEdgeStyle;align=left;verticalAlign=top;rounded=0;entryX=-0.012;entryY=0.186;entryDx=0;entryDy=0;exitX=1;exitY=0.5;exitDx=0;exitDy=0;entryPerimeter=0;" parent="WIyWlLk6GJQsqaUBKTNV-1" source="YyfNLiO5-L-A0iqE2TPl-2" target="YyfNLiO5-L-A0iqE2TPl-1" edge="1">
          <mxGeometry x="-1" relative="1" as="geometry">
            <mxPoint x="690" y="287.5" as="sourcePoint" />
            <mxPoint x="766" y="268.5" as="targetPoint" />
          </mxGeometry>
        </mxCell>
        <mxCell id="YyfNLiO5-L-A0iqE2TPl-9" value="" style="endArrow=open;html=1;endSize=12;startArrow=diamondThin;startSize=14;startFill=1;edgeStyle=orthogonalEdgeStyle;align=left;verticalAlign=bottom;rounded=0;exitX=1.013;exitY=0.246;exitDx=0;exitDy=0;exitPerimeter=0;entryX=0;entryY=0.5;entryDx=0;entryDy=0;" parent="WIyWlLk6GJQsqaUBKTNV-1" source="zkfFHV4jXpPFQw0GAbJ--3" target="YyfNLiO5-L-A0iqE2TPl-2" edge="1">
          <mxGeometry x="-1" y="3" relative="1" as="geometry">
            <mxPoint x="570" y="493" as="sourcePoint" />
            <mxPoint x="730" y="493" as="targetPoint" />
          </mxGeometry>
        </mxCell>
        <mxCell id="YyfNLiO5-L-A0iqE2TPl-11" value="" style="endArrow=open;html=1;endSize=12;startArrow=diamondThin;startSize=14;startFill=1;edgeStyle=orthogonalEdgeStyle;align=left;verticalAlign=bottom;rounded=0;exitX=1.008;exitY=0.66;exitDx=0;exitDy=0;exitPerimeter=0;entryX=0;entryY=0.5;entryDx=0;entryDy=0;" parent="WIyWlLk6GJQsqaUBKTNV-1" source="zkfFHV4jXpPFQw0GAbJ--3" target="YyfNLiO5-L-A0iqE2TPl-4" edge="1">
          <mxGeometry x="-1" y="3" relative="1" as="geometry">
            <mxPoint x="450" y="332.5" as="sourcePoint" />
            <mxPoint x="528" y="308.5" as="targetPoint" />
          </mxGeometry>
        </mxCell>
        <mxCell id="YyfNLiO5-L-A0iqE2TPl-19" value="TreeN" style="swimlane;fontStyle=1;align=center;verticalAlign=top;childLayout=stackLayout;horizontal=1;startSize=26;horizontalStack=0;resizeParent=1;resizeParentMax=0;resizeLast=0;collapsible=1;marginBottom=0;whiteSpace=wrap;html=1;" parent="WIyWlLk6GJQsqaUBKTNV-1" vertex="1">
          <mxGeometry x="325" y="453" width="280" height="250" as="geometry" />
        </mxCell>
        <mxCell id="YyfNLiO5-L-A0iqE2TPl-20" value="- root: NodeN" style="text;strokeColor=none;fillColor=none;align=left;verticalAlign=top;spacingLeft=4;spacingRight=4;overflow=hidden;rotatable=0;points=[[0,0.5],[1,0.5]];portConstraint=eastwest;whiteSpace=wrap;html=1;" parent="YyfNLiO5-L-A0iqE2TPl-19" vertex="1">
          <mxGeometry y="26" width="280" height="26" as="geometry" />
        </mxCell>
        <mxCell id="YyfNLiO5-L-A0iqE2TPl-21" value="" style="line;strokeWidth=1;fillColor=none;align=left;verticalAlign=middle;spacingTop=-1;spacingLeft=3;spacingRight=3;rotatable=0;labelPosition=right;points=[];portConstraint=eastwest;strokeColor=inherit;" parent="YyfNLiO5-L-A0iqE2TPl-19" vertex="1">
          <mxGeometry y="52" width="280" height="8" as="geometry" />
        </mxCell>
        <mxCell id="YyfNLiO5-L-A0iqE2TPl-22" value="&lt;div style=&quot;line-height: 160%;&quot;&gt;&lt;div&gt;- create_person(person: Person)&lt;/div&gt;&lt;div&gt;- get_persons: List[Person]&lt;/div&gt;&lt;div&gt;- update_person(id: Str, person: Person): Bool&lt;/div&gt;&lt;div&gt;- delete_person(id: Str): Bool&lt;/div&gt;&lt;div&gt;- get_persons_with_adult_child(): List[Person]&lt;/div&gt;&lt;div&gt;&lt;span style=&quot;background-color: transparent; color: light-dark(rgb(0, 0, 0), rgb(255, 255, 255));&quot;&gt;- filter_by_location_typedoc_gender(loc: Str, td:&amp;nbsp; &amp;nbsp; &amp;nbsp; &amp;nbsp; Str,&amp;nbsp;g: Str): List[Person]&lt;/span&gt;&lt;/div&gt;&lt;div&gt;- get_persons_by_location(location: Str): List[Person]&lt;/div&gt;&lt;/div&gt;" style="text;strokeColor=none;fillColor=none;align=left;verticalAlign=top;spacingLeft=4;spacingRight=4;overflow=hidden;rotatable=0;points=[[0,0.5],[1,0.5]];portConstraint=eastwest;whiteSpace=wrap;html=1;" parent="YyfNLiO5-L-A0iqE2TPl-19" vertex="1">
          <mxGeometry y="60" width="280" height="190" as="geometry" />
        </mxCell>
        <mxCell id="YyfNLiO5-L-A0iqE2TPl-23" value="NodeN" style="swimlane;fontStyle=1;align=center;verticalAlign=top;childLayout=stackLayout;horizontal=1;startSize=26;horizontalStack=0;resizeParent=1;resizeParentMax=0;resizeLast=0;collapsible=1;marginBottom=0;whiteSpace=wrap;html=1;" parent="WIyWlLk6GJQsqaUBKTNV-1" vertex="1">
          <mxGeometry x="685" y="453" width="190" height="143" as="geometry" />
        </mxCell>
        <mxCell id="YyfNLiO5-L-A0iqE2TPl-24" value="- person: Person&lt;div&gt;- children: List[NodeN]&lt;/div&gt;&lt;div&gt;- parent: [NodeN]&lt;/div&gt;" style="text;strokeColor=none;fillColor=none;align=left;verticalAlign=top;spacingLeft=4;spacingRight=4;overflow=hidden;rotatable=0;points=[[0,0.5],[1,0.5]];portConstraint=eastwest;whiteSpace=wrap;html=1;" parent="YyfNLiO5-L-A0iqE2TPl-23" vertex="1">
          <mxGeometry y="26" width="190" height="57" as="geometry" />
        </mxCell>
        <mxCell id="YyfNLiO5-L-A0iqE2TPl-25" value="" style="line;strokeWidth=1;fillColor=none;align=left;verticalAlign=middle;spacingTop=-1;spacingLeft=3;spacingRight=3;rotatable=0;labelPosition=right;points=[];portConstraint=eastwest;strokeColor=inherit;" parent="YyfNLiO5-L-A0iqE2TPl-23" vertex="1">
          <mxGeometry y="83" width="190" height="8" as="geometry" />
        </mxCell>
        <mxCell id="YyfNLiO5-L-A0iqE2TPl-26" value="&lt;div style=&quot;line-height: 160%;&quot;&gt;&lt;div&gt;- add_child(child: NodeN)&lt;/div&gt;&lt;div&gt;- remove_child_by_id(id: Str&lt;/div&gt;&lt;/div&gt;" style="text;strokeColor=none;fillColor=none;align=left;verticalAlign=top;spacingLeft=4;spacingRight=4;overflow=hidden;rotatable=0;points=[[0,0.5],[1,0.5]];portConstraint=eastwest;whiteSpace=wrap;html=1;" parent="YyfNLiO5-L-A0iqE2TPl-23" vertex="1">
          <mxGeometry y="91" width="190" height="52" as="geometry" />
        </mxCell>
        <mxCell id="qRAREw7zTZEUmXx6DS83-14" value="" style="endArrow=open;html=1;endSize=12;startArrow=diamondThin;startSize=14;startFill=1;edgeStyle=orthogonalEdgeStyle;align=left;verticalAlign=bottom;rounded=0;entryX=1;entryY=0.5;entryDx=0;entryDy=0;exitX=1;exitY=0.5;exitDx=0;exitDy=0;" parent="YyfNLiO5-L-A0iqE2TPl-23" source="YyfNLiO5-L-A0iqE2TPl-24" target="YyfNLiO5-L-A0iqE2TPl-26" edge="1">
          <mxGeometry x="-1" y="3" relative="1" as="geometry">
            <mxPoint x="235" y="57" as="sourcePoint" />
            <mxPoint x="315" y="-50" as="targetPoint" />
            <Array as="points">
              <mxPoint x="230" y="54" />
              <mxPoint x="230" y="117" />
            </Array>
          </mxGeometry>
        </mxCell>
        <mxCell id="YyfNLiO5-L-A0iqE2TPl-27" value="PersonService" style="swimlane;fontStyle=1;align=center;verticalAlign=top;childLayout=stackLayout;horizontal=1;startSize=26;horizontalStack=0;resizeParent=1;resizeParentMax=0;resizeLast=0;collapsible=1;marginBottom=0;whiteSpace=wrap;html=1;" parent="WIyWlLk6GJQsqaUBKTNV-1" vertex="1">
          <mxGeometry x="190" y="1013" width="240" height="200" as="geometry" />
        </mxCell>
        <mxCell id="YyfNLiO5-L-A0iqE2TPl-28" value="- tree: treeN" style="text;strokeColor=none;fillColor=none;align=left;verticalAlign=top;spacingLeft=4;spacingRight=4;overflow=hidden;rotatable=0;points=[[0,0.5],[1,0.5]];portConstraint=eastwest;whiteSpace=wrap;html=1;" parent="YyfNLiO5-L-A0iqE2TPl-27" vertex="1">
          <mxGeometry y="26" width="240" height="44" as="geometry" />
        </mxCell>
        <mxCell id="YyfNLiO5-L-A0iqE2TPl-29" value="" style="line;strokeWidth=1;fillColor=none;align=left;verticalAlign=middle;spacingTop=-1;spacingLeft=3;spacingRight=3;rotatable=0;labelPosition=right;points=[];portConstraint=eastwest;strokeColor=inherit;" parent="YyfNLiO5-L-A0iqE2TPl-27" vertex="1">
          <mxGeometry y="70" width="240" height="8" as="geometry" />
        </mxCell>
        <mxCell id="YyfNLiO5-L-A0iqE2TPl-30" value="&lt;div style=&quot;line-height: 160%;&quot;&gt;&lt;div&gt;- create_person&lt;/div&gt;&lt;div&gt;- update_person&lt;/div&gt;&lt;div&gt;- delelte_person&lt;/div&gt;&lt;div&gt;- get_persons_with_adult_child()&lt;/div&gt;&lt;div&gt;- filter_by_location_typedoc_gender&lt;/div&gt;&lt;div&gt;- get_persons_by_location&lt;/div&gt;&lt;/div&gt;" style="text;strokeColor=none;fillColor=none;align=left;verticalAlign=top;spacingLeft=4;spacingRight=4;overflow=hidden;rotatable=0;points=[[0,0.5],[1,0.5]];portConstraint=eastwest;whiteSpace=wrap;html=1;" parent="YyfNLiO5-L-A0iqE2TPl-27" vertex="1">
          <mxGeometry y="78" width="240" height="122" as="geometry" />
        </mxCell>
        <mxCell id="YyfNLiO5-L-A0iqE2TPl-33" value="TypeDocService" style="swimlane;fontStyle=1;align=center;verticalAlign=top;childLayout=stackLayout;horizontal=1;startSize=26;horizontalStack=0;resizeParent=1;resizeParentMax=0;resizeLast=0;collapsible=1;marginBottom=0;whiteSpace=wrap;html=1;" parent="WIyWlLk6GJQsqaUBKTNV-1" vertex="1">
          <mxGeometry x="480" y="1013" width="190" height="86" as="geometry" />
        </mxCell>
        <mxCell id="YyfNLiO5-L-A0iqE2TPl-35" value="" style="line;strokeWidth=1;fillColor=none;align=left;verticalAlign=middle;spacingTop=-1;spacingLeft=3;spacingRight=3;rotatable=0;labelPosition=right;points=[];portConstraint=eastwest;strokeColor=inherit;" parent="YyfNLiO5-L-A0iqE2TPl-33" vertex="1">
          <mxGeometry y="26" width="190" height="24" as="geometry" />
        </mxCell>
        <mxCell id="YyfNLiO5-L-A0iqE2TPl-36" value="&lt;div style=&quot;line-height: 160%;&quot;&gt;- get_all(): List[TypeDoc]&lt;/div&gt;" style="text;strokeColor=none;fillColor=none;align=left;verticalAlign=top;spacingLeft=4;spacingRight=4;overflow=hidden;rotatable=0;points=[[0,0.5],[1,0.5]];portConstraint=eastwest;whiteSpace=wrap;html=1;" parent="YyfNLiO5-L-A0iqE2TPl-33" vertex="1">
          <mxGeometry y="50" width="190" height="36" as="geometry" />
        </mxCell>
        <mxCell id="YyfNLiO5-L-A0iqE2TPl-40" value="LocationService" style="swimlane;fontStyle=1;align=center;verticalAlign=top;childLayout=stackLayout;horizontal=1;startSize=26;horizontalStack=0;resizeParent=1;resizeParentMax=0;resizeLast=0;collapsible=1;marginBottom=0;whiteSpace=wrap;html=1;" parent="WIyWlLk6GJQsqaUBKTNV-1" vertex="1">
          <mxGeometry x="740" y="1013" width="270" height="182" as="geometry" />
        </mxCell>
        <mxCell id="YyfNLiO5-L-A0iqE2TPl-42" value="" style="line;strokeWidth=1;fillColor=none;align=left;verticalAlign=middle;spacingTop=-1;spacingLeft=3;spacingRight=3;rotatable=0;labelPosition=right;points=[];portConstraint=eastwest;strokeColor=inherit;" parent="YyfNLiO5-L-A0iqE2TPl-40" vertex="1">
          <mxGeometry y="26" width="270" height="24" as="geometry" />
        </mxCell>
        <mxCell id="YyfNLiO5-L-A0iqE2TPl-43" value="&lt;div style=&quot;line-height: 160%;&quot;&gt;&lt;div&gt;- get_states(): List[Location]&lt;/div&gt;&lt;div&gt;- get_locations_by_state_code(state_code: Str):&amp;nbsp; &amp;nbsp; List[Location]&lt;/div&gt;&lt;div&gt;- get_location_by_code(code: Str): Location&lt;/div&gt;&lt;div&gt;- get_capitals(): List[Location]&lt;/div&gt;&lt;div&gt;- load_locations_from_csv(file_path: Str):&lt;/div&gt;&lt;div&gt;&lt;br&gt;&lt;/div&gt;&lt;/div&gt;" style="text;strokeColor=none;fillColor=none;align=left;verticalAlign=top;spacingLeft=4;spacingRight=4;overflow=hidden;rotatable=0;points=[[0,0.5],[1,0.5]];portConstraint=eastwest;whiteSpace=wrap;html=1;" parent="YyfNLiO5-L-A0iqE2TPl-40" vertex="1">
          <mxGeometry y="50" width="270" height="132" as="geometry" />
        </mxCell>
        <mxCell id="qRAREw7zTZEUmXx6DS83-0" value="PersonController" style="swimlane;fontStyle=1;align=center;verticalAlign=top;childLayout=stackLayout;horizontal=1;startSize=26;horizontalStack=0;resizeParent=1;resizeParentMax=0;resizeLast=0;collapsible=1;marginBottom=0;whiteSpace=wrap;html=1;" parent="WIyWlLk6GJQsqaUBKTNV-1" vertex="1">
          <mxGeometry x="150" y="733" width="280" height="230" as="geometry" />
        </mxCell>
        <mxCell id="qRAREw7zTZEUmXx6DS83-1" value="- service: PersonService" style="text;strokeColor=none;fillColor=none;align=left;verticalAlign=top;spacingLeft=4;spacingRight=4;overflow=hidden;rotatable=0;points=[[0,0.5],[1,0.5]];portConstraint=eastwest;whiteSpace=wrap;html=1;" parent="qRAREw7zTZEUmXx6DS83-0" vertex="1">
          <mxGeometry y="26" width="280" height="26" as="geometry" />
        </mxCell>
        <mxCell id="qRAREw7zTZEUmXx6DS83-2" value="" style="line;strokeWidth=1;fillColor=none;align=left;verticalAlign=middle;spacingTop=-1;spacingLeft=3;spacingRight=3;rotatable=0;labelPosition=right;points=[];portConstraint=eastwest;strokeColor=inherit;" parent="qRAREw7zTZEUmXx6DS83-0" vertex="1">
          <mxGeometry y="52" width="280" height="8" as="geometry" />
        </mxCell>
        <mxCell id="qRAREw7zTZEUmXx6DS83-3" value="&lt;div style=&quot;line-height: 160%;&quot;&gt;&lt;div&gt;- create_person(person_data: PersonCreate)&lt;/div&gt;&lt;div&gt;- update_person(id: Str, person_data:&amp;nbsp; &amp;nbsp; &amp;nbsp; &amp;nbsp; &amp;nbsp; &amp;nbsp; &amp;nbsp; &amp;nbsp; &amp;nbsp; &amp;nbsp; &amp;nbsp; &amp;nbsp; PersonUpdate): Bool&lt;/div&gt;&lt;div&gt;- delete_person(id: Str): Bool&lt;/div&gt;&lt;div&gt;- get_persons_with_adult_child()&lt;/div&gt;&lt;div&gt;&lt;span style=&quot;background-color: transparent; color: light-dark(rgb(0, 0, 0), rgb(255, 255, 255));&quot;&gt;- filter_by_location_typedoc_gender(loc: Str, td:&amp;nbsp; &amp;nbsp; &amp;nbsp; &amp;nbsp; Str,&amp;nbsp;g: Str)&lt;/span&gt;&lt;/div&gt;&lt;div&gt;- get_persons_by_location(location: Str)&lt;/div&gt;&lt;/div&gt;" style="text;strokeColor=none;fillColor=none;align=left;verticalAlign=top;spacingLeft=4;spacingRight=4;overflow=hidden;rotatable=0;points=[[0,0.5],[1,0.5]];portConstraint=eastwest;whiteSpace=wrap;html=1;" parent="qRAREw7zTZEUmXx6DS83-0" vertex="1">
          <mxGeometry y="60" width="280" height="170" as="geometry" />
        </mxCell>
        <mxCell id="qRAREw7zTZEUmXx6DS83-4" value="TypeDocController" style="swimlane;fontStyle=1;align=center;verticalAlign=top;childLayout=stackLayout;horizontal=1;startSize=26;horizontalStack=0;resizeParent=1;resizeParentMax=0;resizeLast=0;collapsible=1;marginBottom=0;whiteSpace=wrap;html=1;" parent="WIyWlLk6GJQsqaUBKTNV-1" vertex="1">
          <mxGeometry x="465" y="733" width="205" height="100" as="geometry" />
        </mxCell>
        <mxCell id="qRAREw7zTZEUmXx6DS83-5" value="- service: TypeDocService" style="text;strokeColor=none;fillColor=none;align=left;verticalAlign=top;spacingLeft=4;spacingRight=4;overflow=hidden;rotatable=0;points=[[0,0.5],[1,0.5]];portConstraint=eastwest;whiteSpace=wrap;html=1;" parent="qRAREw7zTZEUmXx6DS83-4" vertex="1">
          <mxGeometry y="26" width="205" height="26" as="geometry" />
        </mxCell>
        <mxCell id="qRAREw7zTZEUmXx6DS83-6" value="" style="line;strokeWidth=1;fillColor=none;align=left;verticalAlign=middle;spacingTop=-1;spacingLeft=3;spacingRight=3;rotatable=0;labelPosition=right;points=[];portConstraint=eastwest;strokeColor=inherit;" parent="qRAREw7zTZEUmXx6DS83-4" vertex="1">
          <mxGeometry y="52" width="205" height="8" as="geometry" />
        </mxCell>
        <mxCell id="qRAREw7zTZEUmXx6DS83-7" value="&lt;div style=&quot;line-height: 160%;&quot;&gt;- get_all(): List[TypeDoc]&lt;/div&gt;" style="text;strokeColor=none;fillColor=none;align=left;verticalAlign=top;spacingLeft=4;spacingRight=4;overflow=hidden;rotatable=0;points=[[0,0.5],[1,0.5]];portConstraint=eastwest;whiteSpace=wrap;html=1;" parent="qRAREw7zTZEUmXx6DS83-4" vertex="1">
          <mxGeometry y="60" width="205" height="40" as="geometry" />
        </mxCell>
        <mxCell id="qRAREw7zTZEUmXx6DS83-8" value="LocationController" style="swimlane;fontStyle=1;align=center;verticalAlign=top;childLayout=stackLayout;horizontal=1;startSize=26;horizontalStack=0;resizeParent=1;resizeParentMax=0;resizeLast=0;collapsible=1;marginBottom=0;whiteSpace=wrap;html=1;" parent="WIyWlLk6GJQsqaUBKTNV-1" vertex="1">
          <mxGeometry x="740" y="733" width="310" height="180" as="geometry" />
        </mxCell>
        <mxCell id="qRAREw7zTZEUmXx6DS83-9" value="- service: LocationService" style="text;strokeColor=none;fillColor=none;align=left;verticalAlign=top;spacingLeft=4;spacingRight=4;overflow=hidden;rotatable=0;points=[[0,0.5],[1,0.5]];portConstraint=eastwest;whiteSpace=wrap;html=1;" parent="qRAREw7zTZEUmXx6DS83-8" vertex="1">
          <mxGeometry y="26" width="310" height="26" as="geometry" />
        </mxCell>
        <mxCell id="qRAREw7zTZEUmXx6DS83-10" value="" style="line;strokeWidth=1;fillColor=none;align=left;verticalAlign=middle;spacingTop=-1;spacingLeft=3;spacingRight=3;rotatable=0;labelPosition=right;points=[];portConstraint=eastwest;strokeColor=inherit;" parent="qRAREw7zTZEUmXx6DS83-8" vertex="1">
          <mxGeometry y="52" width="310" height="8" as="geometry" />
        </mxCell>
        <mxCell id="qRAREw7zTZEUmXx6DS83-11" value="&lt;div style=&quot;line-height: 160%;&quot;&gt;&lt;div style=&quot;line-height: 160%;&quot;&gt;- get_states():&amp;nbsp;&lt;span style=&quot;background-color: transparent; color: light-dark(rgb(0, 0, 0), rgb(255, 255, 255));&quot;&gt;List[Location]&amp;nbsp; &amp;nbsp; &amp;nbsp; &amp;nbsp; &amp;nbsp; &amp;nbsp; &amp;nbsp; &amp;nbsp; &amp;nbsp; &amp;nbsp; &amp;nbsp; &amp;nbsp; &amp;nbsp; &amp;nbsp; &amp;nbsp; &amp;nbsp;&lt;/span&gt;&lt;/div&gt;&lt;div style=&quot;line-height: 160%;&quot;&gt;- get_locations_by_state_code(state_code: str)&amp;nbsp; &amp;nbsp; &amp;nbsp; &amp;nbsp; List[Location]&lt;/div&gt;&lt;div style=&quot;line-height: 160%;&quot;&gt;- get_location_by_code(code: str): Location&amp;nbsp; &amp;nbsp; &amp;nbsp; &amp;nbsp;&amp;nbsp;&lt;/div&gt;&lt;div style=&quot;line-height: 160%;&quot;&gt;- get_capitals(): List[Location]&amp;nbsp;&amp;nbsp;&lt;/div&gt;&lt;/div&gt;" style="text;strokeColor=none;fillColor=none;align=left;verticalAlign=top;spacingLeft=4;spacingRight=4;overflow=hidden;rotatable=0;points=[[0,0.5],[1,0.5]];portConstraint=eastwest;whiteSpace=wrap;html=1;" parent="qRAREw7zTZEUmXx6DS83-8" vertex="1">
          <mxGeometry y="60" width="310" height="120" as="geometry" />
        </mxCell>
        <mxCell id="qRAREw7zTZEUmXx6DS83-13" value="" style="endArrow=open;html=1;endSize=12;startArrow=diamondThin;startSize=14;startFill=1;edgeStyle=orthogonalEdgeStyle;align=left;verticalAlign=bottom;rounded=0;entryX=0;entryY=0.5;entryDx=0;entryDy=0;exitX=1;exitY=0.5;exitDx=0;exitDy=0;" parent="WIyWlLk6GJQsqaUBKTNV-1" source="YyfNLiO5-L-A0iqE2TPl-22" target="YyfNLiO5-L-A0iqE2TPl-24" edge="1">
          <mxGeometry x="-1" y="3" relative="1" as="geometry">
            <mxPoint x="625" y="463" as="sourcePoint" />
            <mxPoint x="674" y="453" as="targetPoint" />
          </mxGeometry>
        </mxCell>
        <mxCell id="qRAREw7zTZEUmXx6DS83-15" value="" style="endArrow=open;html=1;endSize=12;startArrow=diamondThin;startSize=14;startFill=0;edgeStyle=orthogonalEdgeStyle;align=left;verticalAlign=bottom;rounded=0;exitX=0.482;exitY=1.006;exitDx=0;exitDy=0;exitPerimeter=0;entryX=0.395;entryY=0.014;entryDx=0;entryDy=0;entryPerimeter=0;" parent="WIyWlLk6GJQsqaUBKTNV-1" source="qRAREw7zTZEUmXx6DS83-3" target="YyfNLiO5-L-A0iqE2TPl-27" edge="1">
          <mxGeometry x="-1" y="3" relative="1" as="geometry">
            <mxPoint x="300" y="1153" as="sourcePoint" />
            <mxPoint x="460" y="1153" as="targetPoint" />
          </mxGeometry>
        </mxCell>
        <mxCell id="qRAREw7zTZEUmXx6DS83-16" value="" style="endArrow=open;html=1;endSize=12;startArrow=diamondThin;startSize=14;startFill=0;edgeStyle=orthogonalEdgeStyle;align=left;verticalAlign=bottom;rounded=0;exitX=0.5;exitY=1.01;exitDx=0;exitDy=0;exitPerimeter=0;entryX=0.463;entryY=-0.01;entryDx=0;entryDy=0;entryPerimeter=0;" parent="WIyWlLk6GJQsqaUBKTNV-1" source="qRAREw7zTZEUmXx6DS83-7" target="YyfNLiO5-L-A0iqE2TPl-33" edge="1">
          <mxGeometry x="-1" y="3" relative="1" as="geometry">
            <mxPoint x="567" y="843" as="sourcePoint" />
            <mxPoint x="567" y="1083" as="targetPoint" />
          </mxGeometry>
        </mxCell>
        <mxCell id="qRAREw7zTZEUmXx6DS83-19" value="" style="endArrow=open;html=1;endSize=12;startArrow=diamondThin;startSize=14;startFill=0;edgeStyle=orthogonalEdgeStyle;align=left;verticalAlign=bottom;rounded=0;exitX=0.5;exitY=1.01;exitDx=0;exitDy=0;exitPerimeter=0;entryX=0.447;entryY=-0.008;entryDx=0;entryDy=0;entryPerimeter=0;" parent="WIyWlLk6GJQsqaUBKTNV-1" target="YyfNLiO5-L-A0iqE2TPl-40" edge="1">
          <mxGeometry x="-1" y="3" relative="1" as="geometry">
            <mxPoint x="860" y="913" as="sourcePoint" />
            <mxPoint x="861" y="1033" as="targetPoint" />
            <Array as="points">
              <mxPoint x="860" y="974" />
              <mxPoint x="861" y="974" />
            </Array>
          </mxGeometry>
        </mxCell>
        <mxCell id="qRAREw7zTZEUmXx6DS83-20" value="" style="endArrow=open;html=1;endSize=12;startArrow=diamondThin;startSize=14;startFill=1;edgeStyle=orthogonalEdgeStyle;align=left;verticalAlign=bottom;rounded=0;exitX=0.5;exitY=0;exitDx=0;exitDy=0;entryX=0.483;entryY=1.002;entryDx=0;entryDy=0;entryPerimeter=0;" parent="WIyWlLk6GJQsqaUBKTNV-1" source="YyfNLiO5-L-A0iqE2TPl-23" target="zkfFHV4jXpPFQw0GAbJ--3" edge="1">
          <mxGeometry x="-1" y="3" relative="1" as="geometry">
            <mxPoint x="770" y="663" as="sourcePoint" />
            <mxPoint x="930" y="663" as="targetPoint" />
          </mxGeometry>
        </mxCell>
        <mxCell id="D3PS3WsUwrlWXwbrYvBN-0" value="Diagrama de clases person API V2 Hijos a padre" style="text;html=1;align=center;verticalAlign=middle;resizable=0;points=[];autosize=1;strokeColor=none;fillColor=none;fontSize=31;fontStyle=1" vertex="1" parent="WIyWlLk6GJQsqaUBKTNV-1">
          <mxGeometry x="255" y="100" width="690" height="49" as="geometry" />
        </mxCell>
      </root>
    </mxGraphModel>
  </diagram>
</mxfile>
